<svg xmlns="http://www.w3.org/2000/svg" style="display: none;" fill="currentColor">
  <symbol id="icon-clear" viewBox="0 0 24 24">
    <path d="M17 6H22V8H20V21C20 21.5523 19.5523 22 19 22H5C4.44772 22 4 21.5523 4 21V8H2V6H7V3C7 2.44772 7.44772 2 8 2H16C16.5523 2 17 2.44772 17 3V6ZM18 8H6V20H18V8ZM9 11H11V17H9V11ZM13 11H15V17H13V11ZM9 4V6H15V4H9Z"/>
  </symbol>

  <symbol id="icon-undo" viewBox="0 0 24 24">
    <path d="M5.82843 6.99955L8.36396 9.53509L6.94975 10.9493L2 5.99955L6.94975 1.0498L8.36396 2.46402L5.82843 4.99955H13C17.4183 4.99955 21 8.58127 21 12.9996C21 17.4178 17.4183 20.9996 13 20.9996H4V18.9996H13C16.3137 18.9996 19 16.3133 19 12.9996C19 9.68584 16.3137 6.99955 13 6.99955H5.82843Z"/>
  </symbol>

  <symbol id="icon-redo" viewBox="0 0 24 24">
    <path d="M18.1716 6.99955H11C7.68629 6.99955 5 9.68584 5 12.9996C5 16.3133 7.68629 18.9996 11 18.9996H20V20.9996H11C6.58172 20.9996 3 17.4178 3 12.9996C3 8.58127 6.58172 4.99955 11 4.99955H18.1716L15.636 2.46402L17.0503 1.0498L22 5.99955L17.0503 10.9493L15.636 9.53509L18.1716 6.99955Z"/>
  </symbol>

  <symbol id="icon-export" viewBox="0 0 24 24">
    <path d="M10 3V5H5V19H19V14H21V20C21 20.5523 20.5523 21 20 21H4C3.44772 21 3 20.5523 3 20V4C3 3.44772 3.44772 3 4 3H10ZM17.5858 5H13V3H21V11H19V6.41421L12 13.4142L10.5858 12L17.5858 5Z"/>
  </symbol>

  <symbol id="icon-import" viewBox="0 0 24 24">
    <path d="M4 1V4H1V6H4V9H6V6H9V4H6V1H4ZM3 20.0066V11H5V19H13V14C13 13.45 13.45 13 14 13L19 12.999V5H11V3H20.0066C20.5552 3 21 3.45576 21 4.00247V15L15 20.996L4.00221 21C3.4487 21 3 20.5551 3 20.0066ZM18.171 14.999L15 15V18.169L18.171 14.999Z"/>
  </symbol>

  <symbol id="icon-settings" viewBox="0 0 24 24">
    <path d="M6.17071 18C6.58254 16.8348 7.69378 16 9 16C10.3062 16 11.4175 16.8348 11.8293 18H22V20H11.8293C11.4175 21.1652 10.3062 22 9 22C7.69378 22 6.58254 21.1652 6.17071 20H2V18H6.17071ZM12.1707 11C12.5825 9.83481 13.6938 9 15 9C16.3062 9 17.4175 9.83481 17.8293 11H22V13H17.8293C17.4175 14.1652 16.3062 15 15 15C13.6938 15 12.5825 14.1652 12.1707 13H2V11H12.1707ZM6.17071 4C6.58254 2.83481 7.69378 2 9 2C10.3062 2 11.4175 2.83481 11.8293 4H22V6H11.8293C11.4175 7.16519 10.3062 8 9 8C7.69378 8 6.58254 7.16519 6.17071 6H2V4H6.17071ZM9 6C9.55228 6 10 5.55228 10 5C10 4.44772 9.55228 4 9 4C8.44772 4 8 4.44772 8 5C8 5.55228 8.44772 6 9 6ZM15 13C15.5523 13 16 12.5523 16 12C16 11.4477 15.5523 11 15 11C14.4477 11 14 11.4477 14 12C14 12.5523 14.4477 13 15 13ZM9 20C9.55228 20 10 19.5523 10 19C10 18.4477 9.55228 18 9 18C8.44772 18 8 18.4477 8 19C8 19.5523 8.44772 20 9 20Z"/>
  </symbol>

  <symbol id="icon-send" viewBox="0 0 24 24">
    <path d="M13.0001 7.82843V20H11.0001V7.82843L5.63614 13.1924L4.22192 11.7782L12.0001 4L19.7783 11.7782L18.3641 13.1924L13.0001 7.82843Z"/>
  </symbol>

  <symbol id="icon-stop" viewBox="0 0 24 24">
    <path d="M6 5H18C18.5523 5 19 5.44772 19 6V18C19 18.5523 18.5523 19 18 19H6C5.44772 19 5 18.5523 5 18V6C5 5.44772 5.44772 5 6 5Z"/>
  </symbol>

  <symbol id="icon-toggle" viewBox="0 0 24 24">
    <path d="M11.9999 13.1714L16.9497 8.22168L18.3639 9.63589L11.9999 15.9999L5.63599 9.63589L7.0502 8.22168L11.9999 13.1714Z"/>
  </symbol>

  <symbol id="icon-edit" viewBox="0 0 24 24">
    <path d="M6.41421 15.89L16.5563 5.74785L15.1421 4.33363L5 14.4758V15.89H6.41421ZM7.24264 17.89H3V13.6473L14.435 2.21231C14.8256 1.82179 15.4587 1.82179 15.8492 2.21231L18.6777 5.04074C19.0682 5.43126 19.0682 6.06443 18.6777 6.45495L7.24264 17.89ZM3 19.89H21V21.89H3V19.89Z"/>
  </symbol>

  <symbol id="icon-add" viewBox="0 0 24 24">
    <path d="M11 11V5H13V11H19V13H13V19H11V13H5V11H11Z"/>
  </symbol>

  <symbol id="icon-check" viewBox="0 0 24 24">
    <path d="M9.9997 15.1709L19.1921 5.97852L20.6063 7.39273L9.9997 17.9993L3.63574 11.6354L5.04996 10.2212L9.9997 15.1709Z"/>
  </symbol>

  <symbol id="icon-refresh" viewBox="0 0 24 24">
    <path d="M12 4C14.7486 4 17.1749 5.38626 18.6156 7.5H16V9.5H22V3.5H20V5.99936C18.1762 3.57166 15.2724 2 12 2C6.47715 2 2 6.47715 2 12H4C4 7.58172 7.58172 4 12 4ZM20 12C20 16.4183 16.4183 20 12 20C9.25144 20 6.82508 18.6137 5.38443 16.5H8V14.5H2V20.5H4V18.0006C5.82381 20.4283 8.72764 22 12 22C17.5228 22 22 17.5228 22 12H20Z"/>
  </symbol>

  <symbol id="icon-image" viewBox="0 0 24 24">
    <path d="M20.7134 8.12811L20.4668 8.69379C20.2864 9.10792 19.7136 9.10792 19.5331 8.69379L19.2866 8.12811C18.8471 7.11947 18.0555 6.31641 17.0677 5.87708L16.308 5.53922C15.8973 5.35653 15.8973 4.75881 16.308 4.57612L17.0252 4.25714C18.0384 3.80651 18.8442 2.97373 19.2761 1.93083L19.5293 1.31953C19.7058 0.893489 20.2942 0.893489 20.4706 1.31953L20.7238 1.93083C21.1558 2.97373 21.9616 3.80651 22.9748 4.25714L23.6919 4.57612C24.1027 4.75881 24.1027 5.35653 23.6919 5.53922L22.9323 5.87708C21.9445 6.31641 21.1529 7.11947 20.7134 8.12811ZM2.9918 3H14V5H4V19L14 9L20 15V11H22V20.0066C22 20.5552 21.5447 21 21.0082 21H2.9918C2.44405 21 2 20.5551 2 20.0066V3.9934C2 3.44476 2.45531 3 2.9918 3ZM20 17.8284L14 11.8284L6.82843 19H20V17.8284ZM8 11C6.89543 11 6 10.1046 6 9C6 7.89543 6.89543 7 8 7C9.10457 7 10 7.89543 10 9C10 10.1046 9.10457 11 8 11Z"/>
  </symbol>

  <symbol id="icon-home" viewBox="0 0 24 24">
    <path d="M19 21H5C4.44772 21 4 20.5523 4 20V11L1 11L11.3273 1.6115C11.7087 1.26475 12.2913 1.26475 12.6727 1.6115L23 11L20 11V20C20 20.5523 19.5523 21 19 21ZM13 19H18V9.15745L12 3.7029L6 9.15745V19H11V13H13V19Z"/>
  </symbol>

  <symbol id="icon-left" viewBox="0 0 24 24">
    <path d="M10.8284 12.0007L15.7782 16.9504L14.364 18.3646L8 12.0007L14.364 5.63672L15.7782 7.05093L10.8284 12.0007Z"/>
  </symbol>

  <symbol id="icon-right" viewBox="0 0 24 24">
    <path d="M13.1717 12.0007L8.22192 7.05093L9.63614 5.63672L16.0001 12.0007L9.63614 18.3646L8.22192 16.9504L13.1717 12.0007Z"/>
  </symbol>

  <symbol id="icon-left-double" viewBox="0 0 24 24">
    <path d="M4.83582 12L11.0429 18.2071L12.4571 16.7929L7.66424 12L12.4571 7.20712L11.0429 5.79291L4.83582 12ZM10.4857 12L16.6928 18.2071L18.107 16.7929L13.3141 12L18.107 7.20712L16.6928 5.79291L10.4857 12Z"/>
  </symbol>

  <symbol id="icon-right-double" viewBox="0 0 24 24">
    <path d="M19.1642 12L12.9571 5.79291L11.5429 7.20712L16.3358 12L11.5429 16.7929L12.9571 18.2071L19.1642 12ZM13.5143 12L7.30722 5.79291L5.89301 7.20712L10.6859 12L5.89301 16.7929L7.30722 18.2071L13.5143 12Z"/>
  </symbol>

  <symbol id="icon-close" viewBox="0 0 24 24">
    <path d="M10.5859 12L2.79297 4.20706L4.20718 2.79285L12.0001 10.5857L19.793 2.79285L21.2072 4.20706L13.4143 12L21.2072 19.7928L19.793 21.2071L12.0001 13.4142L4.20718 21.2071L2.79297 19.7928L10.5859 12Z"/>
  </symbol>

  <symbol id="icon-info" viewBox="0 0 24 24">
    <path d="M15 4H5V20H19V8H15V4ZM3 2.9918C3 2.44405 3.44749 2 3.9985 2H16L20.9997 7L21 20.9925C21 21.5489 20.5551 22 20.0066 22H3.9934C3.44476 22 3 21.5447 3 21.0082V2.9918ZM11 11H13V17H11V11ZM11 7H13V9H11V7Z"/>
  </symbol>

  <symbol id="icon-lightbulb" viewBox="0 0 24 24">
    <path d="M9.97308 18H11V13H13V18H14.0269C14.1589 16.7984 14.7721 15.8065 15.7676 14.7226C15.8797 14.6006 16.5988 13.8564 16.6841 13.7501C17.5318 12.6931 18 11.385 18 10C18 6.68629 15.3137 4 12 4C8.68629 4 6 6.68629 6 10C6 11.3843 6.46774 12.6917 7.31462 13.7484C7.40004 13.855 8.12081 14.6012 8.23154 14.7218C9.22766 15.8064 9.84103 16.7984 9.97308 18ZM10 20V21H14V20H10ZM5.75395 14.9992C4.65645 13.6297 4 11.8915 4 10C4 5.58172 7.58172 2 12 2C16.4183 2 20 5.58172 20 10C20 11.8925 19.3428 13.6315 18.2443 15.0014C17.624 15.7748 16 17 16 18.5V21C16 22.1046 15.1046 23 14 23H10C8.89543 23 8 22.1046 8 21V18.5C8 17 6.37458 15.7736 5.75395 14.9992Z"/>
  </symbol>

  <symbol id="icon-down" viewBox="0 0 24 24">
    <path d="M13.0001 16.1716L18.3641 10.8076L19.7783 12.2218L12.0001 20L4.22192 12.2218L5.63614 10.8076L11.0001 16.1716V4H13.0001V16.1716Z"/>
  </symbol>

  <symbol id="icon-save" viewBox="0 0 24 24">
    <path d="M7 19V13H17V19H19V7.82843L16.1716 5H5V19H7ZM4 3H17L21 7V20C21 20.5523 20.5523 21 20 21H4C3.44772 21 3 20.5523 3 20V4C3 3.44772 3.44772 3 4 3ZM9 15V19H15V15H9Z"/>
  </symbol>

  <symbol id="icon-question" viewBox="0 0 24 24">
    <path d="M12 22C6.47715 22 2 17.5228 2 12C2 6.47715 6.47715 2 12 2C17.5228 2 22 6.47715 22 12C22 17.5228 17.5228 22 12 22ZM12 20C16.4183 20 20 16.4183 20 12C20 7.58172 16.4183 4 12 4C7.58172 4 4 7.58172 4 12C4 16.4183 7.58172 20 12 20ZM11 15H13V17H11V15ZM13 13.3551V14H11V12.5C11 11.9477 11.4477 11.5 12 11.5C12.8284 11.5 13.5 10.8284 13.5 10C13.5 9.17157 12.8284 8.5 12 8.5C11.2723 8.5 10.6656 9.01823 10.5288 9.70577L8.56731 9.31346C8.88637 7.70919 10.302 6.5 12 6.5C13.933 6.5 15.5 8.067 15.5 10C15.5 11.5855 14.4457 12.9248 13 13.3551Z"/>
  </symbol>

  <symbol id="icon-skip-down" viewBox="0 0 24 24">
    <path d="M12 10.0858L7.20711 5.29291L5.79289 6.70712L12 12.9142L18.2071 6.70712L16.7929 5.29291L12 10.0858ZM18 17L6 17L6 15L18 15V17Z"/>
  </symbol>

  <symbol id="icon-skip-up" viewBox="0 0 24 24">
    <path d="M12 13.9142L16.7929 18.7071L18.2071 17.2929L12 11.0858L5.79289 17.2929L7.20711 18.7071L12 13.9142ZM6 7L18 7V9L6 9L6 7Z"/>
  </symbol>

  <symbol id="icon-search" viewBox="0 0 24 24">
    <path d="M18.031 16.6168L22.3137 20.8995L20.8995 22.3137L16.6168 18.031C15.0769 19.263 13.124 20 11 20C6.032 20 2 15.968 2 11C2 6.032 6.032 2 11 2C15.968 2 20 6.032 20 11C20 13.124 19.263 15.0769 18.031 16.6168ZM16.0247 15.8748C17.2475 14.6146 18 12.8956 18 11C18 7.1325 14.8675 4 11 4C7.1325 4 4 7.1325 4 11C4 14.8675 7.1325 18 11 18C12.8956 18 14.6146 17.2475 15.8748 16.0247L16.0247 15.8748Z"/>
  </symbol>

  <symbol id="icon-shapes" viewBox="0 0 24 24">
    <path d="M10 8H14V6.5C14 4.567 15.567 3 17.5 3C19.433 3 21 4.567 21 6.5C21 8.433 19.433 10 17.5 10H16V14H17.5C19.433 14 21 15.567 21 17.5C21 19.433 19.433 21 17.5 21C15.567 21 14 19.433 14 17.5V16H10V17.5C10 19.433 8.433 21 6.5 21C4.567 21 3 19.433 3 17.5C3 15.567 4.567 14 6.5 14H8V10H6.5C4.567 10 3 8.433 3 6.5C3 4.567 4.567 3 6.5 3C8.433 3 10 4.567 10 6.5V8ZM8 8V6.5C8 5.67157 7.32843 5 6.5 5C5.67157 5 5 5.67157 5 6.5C5 7.32843 5.67157 8 6.5 8H8ZM8 16H6.5C5.67157 16 5 16.6716 5 17.5C5 18.3284 5.67157 19 6.5 19C7.32843 19 8 18.3284 8 17.5V16ZM16 8H17.5C18.3284 8 19 7.32843 19 6.5C19 5.67157 18.3284 5 17.5 5C16.6716 5 16 5.67157 16 6.5V8ZM16 16V17.5C16 18.3284 16.6716 19 17.5 19C18.3284 19 19 18.3284 19 17.5C19 16.6716 18.3284 16 17.5 16H16ZM10 10V14H14V10H10Z"/>
  </symbol>

  <symbol id="icon-code" viewBox="0 0 24 24">
    <path d="M24 12L18.3431 17.6569L16.9289 16.2426L21.1716 12L16.9289 7.75736L18.3431 6.34315L24 12ZM2.82843 12L7.07107 16.2426L5.65685 17.6569L0 12L5.65685 6.34315L7.07107 7.75736L2.82843 12ZM9.78845 21H7.66009L14.2116 3H16.3399L9.78845 21Z"/>
  </symbol>

  <symbol id="icon-window" viewBox="0 0 24 24">
    <path d="M20 9V5H4V9H20ZM20 11H4V19H20V11ZM3 3H21C21.5523 3 22 3.44772 22 4V20C22 20.5523 21.5523 21 21 21H3C2.44772 21 2 20.5523 2 20V4C2 3.44772 2.44772 3 3 3ZM5 12H8V17H5V12ZM5 6H7V8H5V6ZM9 6H11V8H9V6Z"/>
  </symbol>

  <symbol id="icon-download" viewBox="0 0 24 24">
    <path d="M13 10H18L12 16L6 10H11V3H13V10ZM4 19H20V12H22V20C22 20.5523 21.5523 21 21 21H3C2.44772 21 2 20.5523 2 20V12H4V19Z"/>
  </symbol>
</svg>