<svg xmlns="http://www.w3.org/2000/svg" style="display: none;" fill="currentColor">
  <symbol id="icon-clear" viewBox="0 0 24 24">
    <path d="M17 6H22V8H20V21C20 21.5523 19.5523 22 19 22H5C4.44772 22 4 21.5523 4 21V8H2V6H7V3C7 2.44772 7.44772 2 8 2H16C16.5523 2 17 2.44772 17 3V6ZM18 8H6V20H18V8ZM9 11H11V17H9V11ZM13 11H15V17H13V11ZM9 4V6H15V4H9Z"/>
  </symbol>

  <symbol id="icon-undo" viewBox="0 0 24 24">
    <path d="M5.82843 6.99955L8.36396 9.53509L6.94975 10.9493L2 5.99955L6.94975 1.0498L8.36396 2.46402L5.82843 4.99955H13C17.4183 4.99955 21 8.58127 21 12.9996C21 17.4178 17.4183 20.9996 13 20.9996H4V18.9996H13C16.3137 18.9996 19 16.3133 19 12.9996C19 9.68584 16.3137 6.99955 13 6.99955H5.82843Z"/>
  </symbol>

  <symbol id="icon-export" viewBox="0 0 24 24">
    <path d="M10 3V5H5V19H19V14H21V20C21 20.5523 20.5523 21 20 21H4C3.44772 21 3 20.5523 3 20V4C3 3.44772 3.44772 3 4 3H10ZM17.5858 5H13V3H21V11H19V6.41421L12 13.4142L10.5858 12L17.5858 5Z"/>
  </symbol>

  <symbol id="icon-import" viewBox="0 0 24 24">
    <path d="M4 1V4H1V6H4V9H6V6H9V4H6V1H4ZM3 20.0066V11H5V19H13V14C13 13.45 13.45 13 14 13L19 12.999V5H11V3H20.0066C20.5552 3 21 3.45576 21 4.00247V15L15 20.996L4.00221 21C3.4487 21 3 20.5551 3 20.0066ZM18.171 14.999L15 15V18.169L18.171 14.999Z"/>
  </symbol>

  <symbol id="icon-settings" viewBox="0 0 24 24">
    <path d="M6.17071 18C6.58254 16.8348 7.69378 16 9 16C10.3062 16 11.4175 16.8348 11.8293 18H22V20H11.8293C11.4175 21.1652 10.3062 22 9 22C7.69378 22 6.58254 21.1652 6.17071 20H2V18H6.17071ZM12.1707 11C12.5825 9.83481 13.6938 9 15 9C16.3062 9 17.4175 9.83481 17.8293 11H22V13H17.8293C17.4175 14.1652 16.3062 15 15 15C13.6938 15 12.5825 14.1652 12.1707 13H2V11H12.1707ZM6.17071 4C6.58254 2.83481 7.69378 2 9 2C10.3062 2 11.4175 2.83481 11.8293 4H22V6H11.8293C11.4175 7.16519 10.3062 8 9 8C7.69378 8 6.58254 7.16519 6.17071 6H2V4H6.17071ZM9 6C9.55228 6 10 5.55228 10 5C10 4.44772 9.55228 4 9 4C8.44772 4 8 4.44772 8 5C8 5.55228 8.44772 6 9 6ZM15 13C15.5523 13 16 12.5523 16 12C16 11.4477 15.5523 11 15 11C14.4477 11 14 11.4477 14 12C14 12.5523 14.4477 13 15 13ZM9 20C9.55228 20 10 19.5523 10 19C10 18.4477 9.55228 18 9 18C8.44772 18 8 18.4477 8 19C8 19.5523 8.44772 20 9 20Z"/>
  </symbol>

  <symbol id="icon-send" viewBox="0 0 24 24">
    <path d="M13.0001 7.82843V20H11.0001V7.82843L5.63614 13.1924L4.22192 11.7782L12.0001 4L19.7783 11.7782L18.3641 13.1924L13.0001 7.82843Z"/>
  </symbol>

  <symbol id="icon-stop" viewBox="0 0 24 24">
    <path d="M6 5H18C18.5523 5 19 5.44772 19 6V18C19 18.5523 18.5523 19 18 19H6C5.44772 19 5 18.5523 5 18V6C5 5.44772 5.44772 5 6 5Z"/>
  </symbol>

  <symbol id="icon-toggle" viewBox="0 0 24 24">
    <path d="M11.9999 13.1714L16.9497 8.22168L18.3639 9.63589L11.9999 15.9999L5.63599 9.63589L7.0502 8.22168L11.9999 13.1714Z"/>
  </symbol>

  <symbol id="icon-edit" viewBox="0 0 24 24">
    <path d="M6.41421 15.89L16.5563 5.74785L15.1421 4.33363L5 14.4758V15.89H6.41421ZM7.24264 17.89H3V13.6473L14.435 2.21231C14.8256 1.82179 15.4587 1.82179 15.8492 2.21231L18.6777 5.04074C19.0682 5.43126 19.0682 6.06443 18.6777 6.45495L7.24264 17.89ZM3 19.89H21V21.89H3V19.89Z"/>
  </symbol>

  <symbol id="icon-add" viewBox="0 0 24 24">
    <path d="M11 11V5H13V11H19V13H13V19H11V13H5V11H11Z"/>
  </symbol>

  <symbol id="icon-check" viewBox="0 0 24 24">
    <path d="M9.9997 15.1709L19.1921 5.97852L20.6063 7.39273L9.9997 17.9993L3.63574 11.6354L5.04996 10.2212L9.9997 15.1709Z"/>
  </symbol>

  <symbol id="icon-refresh" viewBox="0 0 24 24">
    <path d="M12 4C14.7486 4 17.1749 5.38626 18.6156 7.5H16V9.5H22V3.5H20V5.99936C18.1762 3.57166 15.2724 2 12 2C6.47715 2 2 6.47715 2 12H4C4 7.58172 7.58172 4 12 4ZM20 12C20 16.4183 16.4183 20 12 20C9.25144 20 6.82508 18.6137 5.38443 16.5H8V14.5H2V20.5H4V18.0006C5.82381 20.4283 8.72764 22 12 22C17.5228 22 22 17.5228 22 12H20Z"/>
  </symbol>

  <symbol id="icon-image" viewBox="0 0 24 24">
    <path d="M20.7134 8.12811L20.4668 8.69379C20.2864 9.10792 19.7136 9.10792 19.5331 8.69379L19.2866 8.12811C18.8471 7.11947 18.0555 6.31641 17.0677 5.87708L16.308 5.53922C15.8973 5.35653 15.8973 4.75881 16.308 4.57612L17.0252 4.25714C18.0384 3.80651 18.8442 2.97373 19.2761 1.93083L19.5293 1.31953C19.7058 0.893489 20.2942 0.893489 20.4706 1.31953L20.7238 1.93083C21.1558 2.97373 21.9616 3.80651 22.9748 4.25714L23.6919 4.57612C24.1027 4.75881 24.1027 5.35653 23.6919 5.53922L22.9323 5.87708C21.9445 6.31641 21.1529 7.11947 20.7134 8.12811ZM2.9918 3H14V5H4V19L14 9L20 15V11H22V20.0066C22 20.5552 21.5447 21 21.0082 21H2.9918C2.44405 21 2 20.5551 2 20.0066V3.9934C2 3.44476 2.45531 3 2.9918 3ZM20 17.8284L14 11.8284L6.82843 19H20V17.8284ZM8 11C6.89543 11 6 10.1046 6 9C6 7.89543 6.89543 7 8 7C9.10457 7 10 7.89543 10 9C10 10.1046 9.10457 11 8 11Z"/>
  </symbol>

  <symbol id="icon-home" viewBox="0 0 24 24">
    <path d="M19 21H5C4.44772 21 4 20.5523 4 20V11L1 11L11.3273 1.6115C11.7087 1.26475 12.2913 1.26475 12.6727 1.6115L23 11L20 11V20C20 20.5523 19.5523 21 19 21ZM13 19H18V9.15745L12 3.7029L6 9.15745V19H11V13H13V19Z"/>
  </symbol>

  <symbol id="icon-left" viewBox="0 0 24 24">
    <path d="M10.8284 12.0007L15.7782 16.9504L14.364 18.3646L8 12.0007L14.364 5.63672L15.7782 7.05093L10.8284 12.0007Z"/>
  </symbol>

  <symbol id="icon-right" viewBox="0 0 24 24">
    <path d="M13.1717 12.0007L8.22192 7.05093L9.63614 5.63672L16.0001 12.0007L9.63614 18.3646L8.22192 16.9504L13.1717 12.0007Z"/>
  </symbol>

  <symbol id="icon-close" viewBox="0 0 24 24">
    <path d="M10.5859 12L2.79297 4.20706L4.20718 2.79285L12.0001 10.5857L19.793 2.79285L21.2072 4.20706L13.4143 12L21.2072 19.7928L19.793 21.2071L12.0001 13.4142L4.20718 21.2071L2.79297 19.7928L10.5859 12Z"/>
  </symbol>
</svg>